# AST/ASF file generated using VICON BodyLanguage
# -----------------------------------------------
:version 1.10
:name VICON
:units
  mass 1.0
  length 0.45
  angle deg
:documentation
   .ast/.asf automatically generated from VICON data using
   VICON BodyBuilder and BodyLanguage model FoxedUp or BRILLIANT.MOD
:root
   order TX TY TZ RX RY RZ
   axis XYZ
   position 0 0 0  
   orientation 0 0 0 
:bonedata
  begin
     id 1 
     name lhipjoint
     direction 0.521452 -0.77106 0.36545 
     length 2.0933 
     axis 0 0 0  XYZ
  end
  begin
     id 2 
     name lfemur
     direction 0.34202 -0.939693 0  
     length 6.83441  
     axis 0 0 20  XYZ
    dof rx ry rz
    limits (-160.0 20.0)
           (-70.0 70.0)
           (-60.0 70.0)
  end
  begin
     id 3 
     name ltibia
     direction 0.34202 -0.939693 0   
     length 7.28749   
     axis 0 0 20   XYZ
    dof rx
    limits (-10.0 170.0)
  end
  begin
     id 4 
     name lfoot
     direction 0.100608 -0.276418 0.955757   
     length 1.52195   
     axis -90 7.62852e-016 20   XYZ
    dof rx rz
    limits (-45.0 90.0)
           (-70.0 20.0)
  end
  begin
     id 5 
     name ltoes
     direction 1.53558e-011 -4.21907e-011 1   
     length 0.770459   
     axis -90 7.62852e-016 20   XYZ
    dof rx
    limits (-90.0 20.0)
  end
  begin
     id 6 
     name rhipjoint
     direction -0.488071 -0.788702 0.373812   
     length 2.04648  
     axis 0 0 0  XYZ 
  end
  begin
     id 7 
     name rfemur
     direction -0.34202 -0.939693 0   
     length 6.92583   
     axis 0 0 -20   XYZ
    dof rx ry rz
    limits (-160.0 20.0)
           (-70.0 70.0)
           (-70.0 60.0)
  end
  begin
     id 8 
     name rtibia
     direction -0.34202 -0.939693 0   
     length 7.41043   
     axis 0 0 -20   XYZ
    dof rx
    limits (-10.0 170.0)
 end
 begin
     id 9 
     name rfoot
     direction -0.0784433 -0.215521 0.973343   
     length 1.67708  
     axis -90 -7.62852e-016 -20   XYZ
    dof rx rz
    limits (-45.0 90.0)
           (-20.0 70.0)
  end
  begin
     id 10 
     name rtoes
     direction -1.53551e-011 -4.21842e-011 1   
     length 0.849787   
     axis -90 -7.62852e-016 -20   XYZ
    dof rx
    limits (-90.0 20.0)
  end
  begin
     id 11 
     name lowerback
     direction -0.0122332 0.997575 -0.0685192   
     length 1.98724   
     axis 0 0 0   XYZ
    dof rx ry rz
    limits (-20.0 45.0)
           (-30.0 30.0)
           (-30.0 30.0)
  end
  begin
     id 12 
     name upperback
     direction 0.0182347 0.999724 -0.0148421   
     length 1.99029   
     axis 0 0 0   XYZ
    dof rx ry rz
    limits (-20.0 45.0)
           (-30.0 30.0)
           (-30.0 30.0)
  end
  begin
     id 13 
     name thorax
     direction 0.0242908 0.99956 0.0170184   
     length 1.99573   
     axis 0 0 0   XYZ
    dof rx ry rz
    limits (-20.0 45.0)
           (-30.0 30.0)
           (-30.0 30.0)
  end
  begin
     id 14 
     name lowerneck
     direction 0.0654488 0.985533 0.156338   
     length 1.4285   
     axis 0 0 0   XYZ
    dof rx ry rz
    limits (-20.0 45.0)
           (-30.0 30.0)
           (-30.0 30.0)
  end
  begin
     id 15 
     name upperneck
     direction -0.02953 0.998556 -0.0448842   
     length 1.44709   
     axis 0 0 0   XYZ
    dof rx ry rz
    limits (-20.0 45.0)
           (-30.0 30.0)
           (-30.0 30.0)
  end
  begin
     id 16
     name head
     direction -0.0155588 0.999386 -0.0314063  
     length 1.44689  
     axis 0 0 0   XYZ
    dof rx ry rz
    limits (-20.0 45.0)
           (-30.0 30.0)
           (-30.0 30.0)
  end
  begin
     id 17 
     name lclavicle
     direction 0.968229 0.236071 -0.0824755  
     length 3.60593  
     axis 0 0 0   XYZ
    dof ry rz
    limits (-20.0 10.0)
           (0.0 20.0)
  end
  begin
     id 18 
     name lhumerus
     direction 1 -4.48968e-011 7.8138e-029   
     length 5.06035   
     axis 180 -30 -90   XYZ
    dof rx ry rz
    limits (-60.0 90.0)
           (-90.0 90.0)
           (-90.0 90.0)
  end
  begin
     id 19
     name lradius
     direction 1 -4.48967e-011 9.02887e-028   
     length 3.1478   
     axis 180 -30 -90   XYZ
    dof rx
    limits (-10.0 170.0)
  end
  begin
     id 20
     name lwrist
     direction 1 -4.48961e-011 7.20928e-028   
     length 1.5739   
     axis -5.52449e-016 90 90   XYZ
    dof ry
    limits (-180.0 0.0)
 end
  begin
     id 21 
     name lhand
     direction 1 -4.48972e-011 1.44186e-027   
     length 0.606747   
     axis -9.20027e-016 90 90   XYZ
    dof rx rz
    limits (-90.0 90.0)
           (-45.0 45.0)
  end
  begin
     id 22 
     name lfingers
     direction 1 -4.48943e-011 2.88371e-027   
     length 0.489175   
     axis -1.84005e-015 90 90   XYZ
    dof rx
    limits (0.0 90.0)
  end
  begin
     id 23
     name lthumb
     direction 0.707107 -6.34917e-011 0.707107   
     length 0.70236   
     axis -90 45 2.85299e-015   XYZ
    dof rx rz
    limits (-45.0 45.0)
           (-45.0 45.0)
  end
  begin
     id 24 
     name rclavicle
     direction -0.978165 0.207816 0.0022268   
     length 3.35425  
     axis 0 0 0   XYZ 
    dof ry rz
    limits (-10.0 20.0)
           (-20.0 0.0)
  end
  begin
     id 25 
     name rhumerus
     direction -1 -4.48964e-011 -4.02159e-027  
     length 5.12273   
     axis 180 30 90   XYZ
    dof rx ry rz
    limits (-90.0 60.0)
           (-90.0 90.0)
           (-90.0 90.0)
  end
  begin
     id 26 
     name rradius
     direction -1 -4.48966e-011 1.62746e-027   
     length 3.422   
     axis 180 30 90   XYZ
    dof rx
    limits (-10.0 170.0)
  end
  begin
     id 27 
     name rwrist
     direction -1 -4.4896e-011 7.20928e-028   
     length 1.711   
     axis -5.52449e-016 -90 -90   XYZ
    dof ry
    limits (-180.0 0.0)
  end
  begin
     id 28
     name rhand
     direction -1 -4.48979e-011 1.44186e-027   
     length 0.704599   
     axis -9.20027e-016 -90 -90   XYZ
    dof rx rz
    limits (-90.0 90.0)
           (-45.0 45.0)
  end
  begin
     id 29
     name rfingers
     direction -1 -4.48962e-011 2.88371e-027   
     length 0.568066   
     axis -1.84005e-015 -90 -90   XYZ
    dof rx
    limits (0.0 90.0)
  end
  begin
     id 30
     name rthumb
     direction -0.707107 -6.34949e-011 0.707107   
     length 0.815633   
     axis -90 -45 -2.85299e-015   XYZ
    dof rx rz
    limits (-45.0 45.0)
           (-45.0 45.0)
  end
:hierarchy
  begin
    root lhipjoint rhipjoint lowerback
    lhipjoint lfemur
    lfemur ltibia
    ltibia lfoot
    lfoot ltoes
    rhipjoint rfemur
    rfemur rtibia
    rtibia rfoot
    rfoot rtoes
    lowerback upperback
    upperback thorax
    thorax lowerneck lclavicle rclavicle
    lowerneck upperneck
    upperneck head
    lclavicle lhumerus
    lhumerus lradius
    lradius lwrist
    lwrist lhand lthumb
    lhand lfingers
    rclavicle rhumerus
    rhumerus rradius
    rradius rwrist
    rwrist rhand rthumb
    rhand rfingers
  end

#!OML:ASF E:\id_vita\Project 1\Capture day 1\Session 1\Male1.ASF
:FULLY-SPECIFIED
:DEGREES
23
root 50.0473 16.2247 4.89421 -143.641 -86.3506 154.575
lowerback -2.95488 -0.865697 -2.6455
upperback -3.20168 -1.16168 0.534858
thorax -1.56884 -0.547217 2.01381
lowerneck -10.1853 1.10453 4.85941
upperneck 5.82537 0.794702 -0.0373357
head 3.75521 0.503568 -0.828474
rclavicle -1.01629e-014 1.78906e-015
rhumerus -30.6724 -22.3558 -75.8483
rradius 19.1744
rwrist 15.5736
rhand -16.7936 36.5595
rfingers 7.12502
rthumb 9.4345 6.79064
lclavicle -1.01629e-014 1.78906e-015
lhumerus -26.9976 22.2721 81.0717
lradius 12.3655
lwrist -19.1558
lhand -14.1176 44.5673
lfingers 7.12502
lthumb 12.0157 74.2024
rfemur -15.1195 5.53237 9.22245
rtibia 27.302
rfoot -17.4264 -17.6864
rtoes -5.94353
lfemur -15.0925 4.37562 -23.8257
ltibia 30.0967
lfoot -28.5235 0.907667
ltoes 23.1483
24
root 50.0382 16.2218 4.91105 -122.206 -87.3 132.779
lowerback -2.33969 -1.49009 -3.12341
upperback -3.24651 -2.00367 0.677901
thorax -1.89478 -0.95021 2.43171
lowerneck -9.13018 1.1634 4.71672
upperneck 5.45199 0.963372 -0.0988159
head 3.42002 0.574184 -0.811785
rclavicle 1.77415e-014 -1.98785e-015
rhumerus -30.8857 -21.8264 -75.7398
rradius 19.2277
rwrist 15.5039
rhand -17.692 36.5262
rfingers 7.12502
rthumb 8.56757 6.72006
lclavicle 1.77415e-014 -1.98785e-015
lhumerus -27.2268 21.8878 81.3574
lradius 12.692
lwrist -18.4501
lhand -14.1455 44.9077
lfingers 7.12502
lthumb 11.9888 74.5443
rfemur -14.7196 5.23957 9.09302
rtibia 28.3962
rfoot -17.7544 -18.4874
rtoes -4.08889
lfemur -14.8057 4.91495 -24.0255
ltibia 30.1181
lfoot -28.0232 -0.934602
ltoes 23.6739
25
root 50.0169 16.2092 4.93646 -126.575 -86.9303 137.089
lowerback -2.18875 -1.17502 -3.23939
upperback -3.05978 -1.58224 0.466006
thorax -1.81695 -0.74065 2.28388
lowerneck -9.48922 0.984132 5.40945
upperneck 5.36264 0.638988 -0.411992
head 3.46021 0.413642 -1.05911
rclavicle -1.03244e-014 5.36719e-015
rhumerus -30.9345 -22.3468 -75.81
rradius 19.5119
rwrist 15.4123
rhand -17.666 36.6042
rfingers 7.12502
rthumb 8.59265 6.79904
lclavicle -1.03244e-014 5.36719e-015
lhumerus -26.617 20.2138 82.0215
lradius 12.9505
lwrist -17.4583
lhand -14.1786 44.9223
lfingers 7.12502
lthumb 11.9569 74.5608
rfemur -15.3447 5.89136 8.8517
rtibia 29.5766
rfoot -17.1248 -18.9906
rtoes -4.17734
lfemur -14.6411 5.30773 -24.3129
ltibia 30.1055
lfoot -28.1448 -0.89985
ltoes 23.9721
26
root 50.0027 16.1946 4.95925 -133.419 -86.3615 143.89
lowerback -1.98459 -1.07084 -3.37398
upperback -2.88519 -1.44204 0.447307
thorax -1.75786 -0.669119 2.34332
lowerneck -9.72959 1.05887 5.39271
upperneck 5.30152 0.72775 -0.4294
head 3.48874 0.455363 -1.05692
rclavicle 4.60932e-015 4.96962e-015
rhumerus -30.5489 -22.0321 -76.1502
rradius 19.6096
rwrist 15.221
rhand -17.1286 36.5082
rfingers 7.12502
rthumb 9.1113 6.72504
lclavicle 4.60932e-015 4.96962e-015
lhumerus -26.2648 19.2691 82.4466
lradius 13.3338
lwrist -16.2361
lhand -14.2009 44.6835
lfingers 7.12502
lthumb 11.9354 74.3232
rfemur -16.1654 6.87224 8.58749
rtibia 30.899
rfoot -16.6852 -19.2699
rtoes -2.90565
lfemur -14.4819 5.86519 -24.5718
ltibia 30.0393
lfoot -28.2674 -0.840684
ltoes 23.1733
27
root 49.9751 16.1826 4.98282 -120.838 -86.5812 130.908
lowerback -1.55768 -1.24142 -3.608
upperback -2.48521 -1.67063 0.212242
thorax -1.57092 -0.785911 2.2352
lowerneck -10.6565 1.06985 5.68976
upperneck 5.63187 0.637698 -0.453846
head 3.78867 0.422354 -1.12855
rclavicle -1.93567e-014 -6.75868e-015
rhumerus -30.123 -22.7209 -76.3092
rradius 19.5985
rwrist 15.3182
rhand -16.7774 36.5302
rfingers 7.12502
rthumb 9.45012 6.7621
lclavicle -1.93567e-014 -6.75868e-015
lhumerus -25.5449 17.832 82.9485
lradius 13.5817
lwrist -15.0886
lhand -14.2758 44.581
lfingers 7.12502
lthumb 11.8632 74.2249
rfemur -16.1171 7.11327 8.23457
rtibia 32.3617
rfoot -16.9898 -19.7381
rtoes 0.000551948
lfemur -13.9241 6.22534 -24.9274
ltibia 29.9159
lfoot -28.1093 -1.94633
ltoes 22.3813
28
root 49.9576 16.1722 5.00244 -124.762 -85.9122 134.78
lowerback -1.37369 -1.18348 -4.12237
upperback -2.55448 -1.60357 0.180766
thorax -1.73894 -0.739939 2.49673
lowerneck -10.0688 1.24748 5.50404
upperneck 5.73218 0.925503 -0.297788
head 3.7139 0.569412 -1.02282
rclavicle -1.86609e-014 7.35503e-015
rhumerus -30.285 -22.19 -76.4229
rradius 19.6956
rwrist 15.1238
rhand -16.7738 36.691
rfingers 7.12502
rthumb 9.45356 6.923
lclavicle -1.86609e-014 7.35503e-015
lhumerus -25.9474 16.9253 83.1697
lradius 14.1377
lwrist -13.9008
lhand -14.2806 44.7041
lfingers 7.12502
lthumb 11.8586 74.3483
rfemur -17.0546 7.88787 7.69692
rtibia 33.9952
rfoot -16.3817 -19.9537
rtoes -0.287755
lfemur -13.6763 6.80862 -25.4471
ltibia 29.7061
lfoot -28.142 -2.00536
ltoes 23.7766
29
root 49.9353 16.1709 5.02219 -127.635 -85.3555 137.753
lowerback -1.44073 -1.22143 -4.51492
upperback -2.4904 -1.64768 0.2074
thorax -1.62203 -0.758263 2.74138
lowerneck -10.1775 1.57208 4.81009
upperneck 6.25815 1.3833 0.352556
head 3.91886 0.818155 -0.650481
rclavicle 1.63625e-014 2.78299e-015
rhumerus -30.0484 -21.1545 -76.9232
rradius 19.9133
rwrist 14.5839
rhand -16.9634 36.6795
rfingers 7.12502
rthumb 9.27067 6.90331
lclavicle 1.63625e-014 2.78299e-015
lhumerus -25.9907 16.3063 83.4398
lradius 14.6988
lwrist -12.7689
lhand -14.3438 44.8632
lfingers 7.12502
lthumb 11.7976 74.511
rfemur -18.1734 8.72367 7.26924
rtibia 35.7713
rfoot -15.5959 -20.1168
rtoes -0.78955
lfemur -13.542 7.42842 -25.8542
ltibia 29.3973
lfoot -28.0925 -2.09247
ltoes 23.5894
30
root 49.9089 16.1672 5.04155 -128.929 -84.9999 138.895
lowerback -1.26003 -1.02539 -4.78711
upperback -2.35595 -1.39179 0.0488814
thorax -1.60386 -0.628937 2.73384
lowerneck -9.54604 1.31724 5.59912
upperneck 5.25877 1.03751 -0.207799
head 3.44853 0.620655 -1.0008
rclavicle 5.41688e-015 -6.85807e-015
rhumerus -30.184 -21.1893 -77.1111
rradius 20.2096
rwrist 14.2432
rhand -17.0721 36.5763
rfingers 7.12502
rthumb 9.16575 6.79554
lclavicle 5.41688e-015 -6.85807e-015
lhumerus -25.7433 14.9131 83.8144
lradius 14.9934
lwrist -11.8112
lhand -14.5561 44.7544
lfingers 7.12502
lthumb 11.5929 74.4137
rfemur -18.8999 9.60599 6.97605
rtibia 37.6659
rfoot -16.009 -19.9835
rtoes 2.40907
lfemur -13.132 7.87913 -26.1221
ltibia 29.1127
lfoot -28.0472 -2.26307
ltoes 22.549
31
root 49.8903 16.1633 5.05095 -129.044 -84.6322 139.06
lowerback -1.09205 -1.13058 -5.15741
upperback -2.20877 -1.5356 0.00459522
thorax -1.52759 -0.698832 2.89699
lowerneck -9.99356 1.61057 5.67202
upperneck 5.39643 1.39362 -0.283024
head 3.5987 0.798339 -1.01721
rclavicle -1.56046e-014 -2.01766e-014
rhumerus -29.7414 -20.8747 -77.5867
rradius 20.2637
rwrist 14.1951
rhand -17.0718 36.5298
rfingers 7.12502
rthumb 9.16602 6.74898
lclavicle -1.56046e-014 -2.01766e-014
lhumerus -25.4837 14.6421 83.8423
lradius 15.3111
lwrist -11.1259
lhand -14.6706 44.6666
lfingers 7.12502
lthumb 11.4824 74.3322
rfemur -19.8808 10.3569 6.62611
rtibia 39.6274
rfoot -17.211 -19.7568
rtoes 8.38876
lfemur -13.0042 8.5543 -26.4407
ltibia 28.853
lfoot -27.8938 -2.72849
ltoes 21.6312
32
root 49.8659 16.1497 5.06901 -131.429 -84.0646 141.302
lowerback -0.887392 -1.10841 -5.43973
upperback -2.07265 -1.51362 -0.0632899
thorax -1.49969 -0.686571 2.98794
lowerneck -9.68054 1.73845 5.71904
upperneck 5.17578 1.58655 -0.341864
head 3.46808 0.888009 -1.03322
rclavicle 5.87657e-015 -1.19271e-015
rhumerus -29.5551 -20.5038 -77.9567
rradius 20.3601
rwrist 14.0021
rhand -16.8848 36.5796
rfingers 7.12502
rthumb 9.34652 6.80677
lclavicle 5.87657e-015 -1.19271e-015
lhumerus -25.5161 14.2469 83.8624
lradius 15.7944
lwrist -10.3789
lhand -14.4936 45.1143
lfingers 7.12502
lthumb 11.6531 74.7702
rfemur -20.8491 11.0977 6.26084
rtibia 41.6084
rfoot -15.6179 -20.0232
rtoes 7.44015
lfemur -12.5752 8.88418 -26.7991
ltibia 28.5486
lfoot -27.9438 -2.47064
ltoes 22.5408
33
root 49.8415 16.1376 5.0903 -132.708 -83.5783 142.675
lowerback -0.922655 -1.13908 -5.70656
upperback -2.12734 -1.55692 -0.0926446
thorax -1.52754 -0.703438 3.10703
lowerneck -8.96565 1.8314 5.73812
upperneck 5.07002 1.76682 -0.448201
head 3.30038 0.971928 -1.06253
rclavicle -1.05604e-015 6.65929e-015
rhumerus -29.6869 -19.8089 -78.2618
rradius 20.5325
rwrist 13.5962
rhand -16.4477 36.7197
rfingers 7.12502
rthumb 9.76825 6.96628
lclavicle -1.05604e-015 6.65929e-015
lhumerus -25.8031 13.779 83.8706
lradius 16.2301
lwrist -9.62269
lhand -14.3374 45.5199
lfingers 7.12502
lthumb 11.8038 75.1673
rfemur -22.1443 11.6265 5.86223
rtibia 43.6312
rfoot -13.9588 -20.1199
rtoes 5.70679
lfemur -12.4426 8.9806 -27.1949
ltibia 28.2613
lfoot -27.9908 -2.12622
ltoes 23.4248
34
root 49.8045 16.1379 5.10246 -125.158 -83.9221 135.013
lowerback -0.76618 -1.39005 -5.9957
upperback -1.82388 -1.8913 -0.279626
thorax -1.26799 -0.880503 3.07444
lowerneck -9.80724 1.94626 5.73428
upperneck 5.35295 1.83181 -0.126199
head 3.56037 1.02179 -0.948491
rclavicle -1.07965e-014 -8.74653e-015
rhumerus -29.3014 -19.9312 -78.6995
rradius 20.682
rwrist 13.2693
rhand -16.3083 36.8365
rfingers 7.12502
rthumb 9.90271 7.0894
lclavicle -1.07965e-014 -8.74653e-015
lhumerus -25.1681 12.8601 84.0651
lradius 16.2941
lwrist -9.01703
lhand -14.3634 45.8489
lfingers 7.12502
lthumb 11.7787 75.4977
rfemur -22.7015 11.3752 5.63689
rtibia 45.6579
rfoot -13.3253 -20.108
rtoes 6.44875
lfemur -12.0686 9.12355 -27.4709
ltibia 27.9366
lfoot -27.76 -2.9956
ltoes 23.7452
35
root 49.7744 16.1328 5.12583 -126.458 -83.586 136.421
lowerback -0.823954 -1.36007 -6.11615
upperback -1.71845 -1.8439 -0.35476
thorax -1.13039 -0.862078 3.06122
lowerneck -9.93068 2.05388 5.63916
upperneck 5.47406 1.96314 0.0446963
head 3.627 1.09422 -0.865481
rclavicle -1.21197e-014 -5.76476e-015
rhumerus -29.0422 -19.6934 -79.0279
rradius 20.6709
rwrist 13.1177
rhand -16.729 36.891
rfingers 7.12502
rthumb 9.49684 7.125
lclavicle -1.21197e-014 -5.76476e-015
lhumerus -24.9367 12.6557 84.0628
lradius 16.3985
lwrist -8.78985
lhand -14.3432 46.0787
lfingers 7.12502
lthumb 11.7982 75.7263
rfemur -24.0021 11.6575 5.31637
rtibia 47.6844
rfoot -12.5439 -19.048
rtoes 9.43317
lfemur -11.8954 8.92093 -27.7961
ltibia 27.6073
lfoot -27.8446 -2.33085
ltoes 23.3762
36
root 49.7424 16.1267 5.13688 -129.062 -83.2063 138.854
lowerback -0.599475 -1.37338 -6.40827
upperback -1.75059 -1.87965 -0.301216
thorax -1.27643 -0.870792 3.28631
lowerneck -9.10776 2.1784 5.69828
upperneck 5.31502 2.19575 -0.136062
head 3.4219 1.2001 -0.925902
rclavicle 9.87711e-016 1.5207e-014
rhumerus -29.3052 -19.172 -79.1826
rradius 20.7592
rwrist 13.0955
rhand -17.1095 36.8354
rfingers 7.12502
rthumb 9.12967 7.05301
lclavicle 9.87711e-016 1.5207e-014
lhumerus -25.3074 12.8434 83.8541
lradius 16.5753
lwrist -8.70635
lhand -14.2636 46.1242
lfingers 7.12502
lthumb 11.875 75.7675
rfemur -25.0269 12.1976 5.16518
rtibia 49.6595
rfoot -11.1668 -17.3834
rtoes 15.7966
lfemur -11.362 8.91914 -27.9616
ltibia 27.2381
lfoot -28.0091 -1.70586
ltoes 23.8302
